<svg width="105" height="104" viewBox="0 0 105 104" fill="none" xmlns="http://www.w3.org/2000/svg">
<g filter="url(#filter0_d_1_445)">
<path d="M12.3707 30.4422L27.3891 83.7267L81.8074 68.3887C86.8164 66.9769 89.7326 61.7717 88.3208 56.7627L75.8587 12.5479C75.6822 11.9218 75.0315 11.5572 74.4054 11.7337L13.1849 28.9889C12.5588 29.1654 12.1943 29.8161 12.3707 30.4422Z" fill="#FEEFCD"/>
</g>
<path d="M18.8535 27.3912L13.1849 28.9889C12.5588 29.1654 12.1943 29.8161 12.3707 30.4422L27.3891 83.7267L33.0577 82.129L18.0393 28.8445C17.8628 28.2184 18.2274 27.5677 18.8535 27.3912Z" fill="#FDE8B4"/>
<path d="M69.111 62.1771L16.9779 76.8709C16.2835 77.0666 15.9313 77.833 16.2241 78.4923C18.0943 82.7045 22.8232 85.0136 27.389 83.7267L81.8072 68.3888C77.1363 69.7053 72.2949 67.2584 70.5177 62.8605C70.2943 62.3072 69.6855 62.0151 69.111 62.1771Z" fill="#FDE09B"/>
<path d="M43.445 27.8027C43.1549 27.8844 42.8335 27.8556 42.5497 27.6966L28.7438 19.962C28.1762 19.6441 27.9739 18.9263 28.2919 18.3587C28.6099 17.7912 29.3277 17.5889 29.8952 17.9069L43.7011 25.6415C44.2687 25.9594 44.471 26.6772 44.1529 27.2447C43.9941 27.5284 43.7351 27.7209 43.445 27.8027Z" fill="#C9BFCB"/>
<path d="M30.9172 24.6029C34.0479 23.7205 35.8705 20.4673 34.9881 17.3366C34.1057 14.2059 30.8525 12.3834 27.7218 13.2657C24.5912 14.1481 22.7686 17.4014 23.651 20.532C24.5333 23.6627 27.7866 25.4853 30.9172 24.6029Z" fill="#FFBB55"/>
<path d="M32.9526 20.9698C29.822 21.8521 26.5687 20.0295 25.6864 16.8989C25.452 16.0673 25.4102 15.2275 25.5313 14.4253C23.815 15.8691 23.003 18.233 23.6509 20.532C24.5333 23.6626 27.7866 25.4853 30.9172 24.6029C33.2162 23.9549 34.8081 22.0279 35.1431 19.8102C34.5223 20.3326 33.7842 20.7354 32.9526 20.9698Z" fill="#FF8616"/>
<path d="M34.6642 40.0678L27.8619 41.985C27.2358 42.1615 26.8713 42.8122 27.0477 43.4383C27.2242 44.0644 27.8749 44.4289 28.501 44.2525L30.7684 43.6134L33.0052 51.5494C33.1817 52.1755 33.8323 52.54 34.4584 52.3635C35.0845 52.1871 35.4491 51.5364 35.2726 50.9103L33.0358 42.9743L35.3033 42.3352C35.9294 42.1587 36.2939 41.508 36.1174 40.882C35.941 40.2559 35.2903 39.8913 34.6642 40.0678Z" fill="#6F5575"/>
<path d="M43.5281 49.8072C41.0276 50.512 38.2766 48.5425 37.3956 45.4168C36.5146 42.2912 37.8322 39.1749 40.3327 38.4701C42.8333 37.7653 45.5843 39.7348 46.4653 42.8605C47.3463 45.9861 46.0287 49.1024 43.5281 49.8072ZM40.9718 40.7375C39.7427 41.0839 39.1434 42.9342 39.663 44.7777C40.1826 46.6213 41.66 47.8862 42.8891 47.5398C44.1181 47.1934 44.7175 45.3431 44.1979 43.4996C43.6783 41.656 42.2009 40.3911 40.9718 40.7375Z" fill="#6F5575"/>
<path d="M68.4699 42.7773C65.9693 43.4821 63.2183 41.5126 62.3373 38.3869C61.4563 35.2613 62.7739 32.145 65.2744 31.4402C67.775 30.7354 70.526 32.7049 71.407 35.8306C72.288 38.9562 70.9704 42.0725 68.4699 42.7773ZM65.9135 33.7076C64.6844 34.054 64.0851 35.9043 64.6047 37.7478C65.1243 39.5914 66.6017 40.8563 67.8308 40.5099C69.0599 40.1635 69.6592 38.3132 69.1396 36.4697C68.62 34.6261 67.1426 33.3612 65.9135 33.7076Z" fill="#6F5575"/>
<path d="M53.7316 46.9314C53.1055 47.1078 52.4548 46.7433 52.2783 46.1172L49.4025 35.9138C49.3085 35.5805 49.366 35.2228 49.5596 34.9357C49.7531 34.6487 50.0626 34.4611 50.4073 34.4234C50.7385 34.387 58.5386 33.5933 60.0699 39.026C61.3337 43.51 56.4764 46.1577 53.7316 46.9314ZM52.0787 36.725L54.2015 44.2568C55.7969 43.5811 58.4776 42.0605 57.8024 39.6651C57.1129 37.2187 53.956 36.7697 52.0787 36.725Z" fill="#6F5575"/>
<path d="M65.5327 49.7241L42.8584 56.1149C42.2323 56.2913 41.5816 55.9268 41.4052 55.3007C41.2287 54.6746 41.5933 54.0239 42.2193 53.8475L64.8936 47.4566C65.5197 47.2802 66.1704 47.6447 66.3469 48.2708C66.5233 48.8969 66.1588 49.5476 65.5327 49.7241Z" fill="#F79235"/>
<path d="M61.4618 56.9903L46.7236 61.1444C46.0975 61.3208 45.4468 60.9563 45.2703 60.3302C45.0938 59.7041 45.4584 59.0534 46.0845 58.8769L60.8228 54.7229C61.4489 54.5465 62.0996 54.911 62.276 55.5371C62.4525 56.1632 62.0879 56.8139 61.4618 56.9903Z" fill="#F79235"/>
<defs>
<filter id="filter0_d_1_445" x="8.32626" y="3.68925" width="104.35" height="100.037" filterUnits="userSpaceOnUse" color-interpolation-filters="sRGB">
<feFlood flood-opacity="0" result="BackgroundImageFix"/>
<feColorMatrix in="SourceAlpha" type="matrix" values="0 0 0 0 0 0 0 0 0 0 0 0 0 0 0 0 0 0 127 0" result="hardAlpha"/>
<feOffset dx="10" dy="6"/>
<feGaussianBlur stdDeviation="7"/>
<feComposite in2="hardAlpha" operator="out"/>
<feColorMatrix type="matrix" values="0 0 0 0 0.027451 0 0 0 0 0.184314 0 0 0 0 0.168627 0 0 0 0.5 0"/>
<feBlend mode="normal" in2="BackgroundImageFix" result="effect1_dropShadow_1_445"/>
<feBlend mode="normal" in="SourceGraphic" in2="effect1_dropShadow_1_445" result="shape"/>
</filter>
</defs>
</svg>
